<?xml version="1.0" encoding="UTF-8" standalone="no"?>
<svg
   xmlns:dc="http://purl.org/dc/elements/1.1/"
   xmlns:cc="http://creativecommons.org/ns#"
   xmlns:rdf="http://www.w3.org/1999/02/22-rdf-syntax-ns#"
   xmlns:svg="http://www.w3.org/2000/svg"
   xmlns="http://www.w3.org/2000/svg"
   xmlns:sodipodi="http://sodipodi.sourceforge.net/DTD/sodipodi-0.dtd"
   xmlns:inkscape="http://www.inkscape.org/namespaces/inkscape"
   width="112.17376"
   height="112.17376"
   viewBox="0 0 112.17376 112.17376"
   version="1.1"
   id="svg2"
   inkscape:version="0.91 r"
   sodipodi:docname="logo_highlighter_favicon.svg"
   inkscape:export-filename="/home/rind/Downloads/icon-16.png"
   inkscape:export-xdpi="12.84"
   inkscape:export-ydpi="12.84">
  <metadata
     id="metadata25">
    <rdf:RDF>
      <cc:Work
         rdf:about="">
        <dc:format>image/svg+xml</dc:format>
        <dc:type
           rdf:resource="http://purl.org/dc/dcmitype/StillImage" />
        <dc:title>Artboard</dc:title>
      </cc:Work>
    </rdf:RDF>
  </metadata>
  <sodipodi:namedview
     pagecolor="#ffffff"
     bordercolor="#666666"
     borderopacity="1"
     objecttolerance="10"
     gridtolerance="10"
     guidetolerance="10"
     inkscape:pageopacity="0"
     inkscape:pageshadow="2"
     inkscape:window-width="1600"
     inkscape:window-height="851"
     id="namedview23"
     showgrid="false"
     fit-margin-top="0.5"
     fit-margin-left="0.5"
     fit-margin-right="0.5"
     fit-margin-bottom="0.5"
     inkscape:zoom="0.96245734"
     inkscape:cx="177.33416"
     inkscape:cy="56.282191"
     inkscape:window-x="0"
     inkscape:window-y="0"
     inkscape:window-maximized="1"
     inkscape:current-layer="svg2" />
  <!-- Generator: Sketch 51.3 (57544) - http://www.bohemiancoding.com/sketch -->
  <title
     id="title4">Artboard</title>
  <desc
     id="desc6">Created with Sketch.</desc>
  <circle
     style="opacity:1;fill:#ffffff;fill-opacity:1;fill-rule:evenodd;stroke:none;stroke-width:3;stroke-linecap:round;stroke-miterlimit:4;stroke-dasharray:none;stroke-opacity:1"
     id="path4162"
     cx="56.08688"
     cy="56.08688"
     r="55.58688" />
  <defs
     id="defs8" />
  <g
     style="fill:none;fill-rule:evenodd;stroke:none;stroke-width:1"
     transform="translate(4.834161,-3.1084336)"
     id="Group">
    <g
       style="fill:#4575b4;fill-rule:nonzero"
       transform="matrix(-0.70710678,0.70710678,-0.70710678,-0.70710678,107.03301,54.707107)"
       id="marker_contractVis_lines">
      <path
         inkscape:connector-curvature="0"
         id="Shape"
         d="M 73.872812,8.0331708 71.147611,0.78504254 C 71.002916,0.4002175 70.671025,0.11481631 70.2663,0.02761933 69.860927,-0.05973853 69.440143,0.06317382 69.147346,0.35324053 L 64.278968,5.1815722 63.993633,4.8985842 c -0.475288,-0.4710568 -1.245482,-0.4710568 -1.720608,0 C 57.636452,9.49734 50.816798,11.31078 44.473081,9.6303878 c -0.0073,-0.00193 -0.01476,-0.00257 -0.02206,-0.00434 -0.03682,-0.00901 -0.07397,-0.016249 -0.11128,-0.02188 -0.01379,-0.00209 -0.02741,-0.00434 -0.0412,-0.00595 -0.04639,-0.00531 -0.09295,-0.00869 -0.139667,-0.00869 -0.0065,0 -0.01298,8.044e-4 -0.01946,9.652e-4 -0.04088,6.436e-4 -0.08159,0.00354 -0.12231,0.0082 -0.01492,0.00177 -0.02985,0.00402 -0.04461,0.00644 -0.03471,0.00531 -0.06927,0.012227 -0.103493,0.020593 -0.01217,0.00306 -0.02449,0.00547 -0.0365,0.00885 -0.04607,0.01271 -0.09165,0.027671 -0.13626,0.045851 -0.04834,0.020271 -0.08906,0.040542 -0.12896,0.062582 -0.01119,0.00611 -0.0219,0.01271 -0.03293,0.019306 -0.03163,0.018823 -0.06229,0.039094 -0.09246,0.060974 -0.01071,0.00772 -0.02157,0.015123 -0.03212,0.023328 -0.03828,0.029763 -0.07559,0.061295 -0.110955,0.096206 l -1.433813,1.422019 -0.285497,-0.283149 c -0.232291,-0.23022 -0.55234,-0.359406 -0.876607,-0.353132 -0.328321,0.0043 -0.640909,0.140126 -0.866873,0.376459 L 1.6861219,51.031095 c -2.29290008,2.399526 -2.24066705,6.253568 0.1163077,8.591316 L 16.124174,73.826188 c 1.199899,1.19019 2.795926,1.787859 4.393251,1.787859 1.540064,-1.6e-4 3.081587,-0.556001 4.26932,-1.672508 L 65.043647,36.105128 c 0.238293,-0.223945 0.375201,-0.5338 0.379581,-0.859582 0.0044,-0.32546 -0.124094,-0.639176 -0.35606,-0.869395 l -0.285497,-0.282988 1.433812,-1.422019 c 0.307072,-0.304546 0.427111,-0.748253 0.315021,-1.164289 -1.693681,-6.290892 0.134475,-13.055254 4.771211,-17.653688 0.228073,-0.226358 0.356223,-0.533156 0.356223,-0.853308 0,-0.320151 -0.12815,-0.626788 -0.356223,-0.853307 L 71.01638,11.863564 73.593155,9.3079842 C 73.930074,8.9739973 74.039244,8.4757518 73.872812,8.0331708 Z M 2.7389402,52.856614 36.471343,16.803122 39.322264,19.690719 22.841285,37.305814 c -0.459462,0.491009 -0.438826,1.266141 0.04579,1.731514 0.233923,0.224358 0.532976,0.335721 0.831545,0.335721 0.320173,0 0.640023,-0.128182 0.877815,-0.382259 L 41.032913,21.423375 53.312476,33.860912 15.065094,70.573111 4.787173,60.162967 21.269281,42.546728 c 0.459461,-0.491009 0.438826,-1.26614 -0.04578,-1.731513 -0.484612,-0.465046 -1.249737,-0.444309 -1.709521,0.04654 L 3.0763625,58.43031 2.8092298,58.159741 C 1.3845754,56.716758 1.3529774,54.337805 2.7389402,52.856614 Z M 22.724024,71.251632 c -1.468313,1.362211 -3.827424,1.331464 -5.258175,-0.06942 l -0.268276,-0.262616 38.411054,-35.633042 2.863121,2.802717 -35.747724,33.16236 z M 64.123226,31.39796 63.189845,32.363583 46.546546,15.145366 c -0.468208,-0.484051 -1.22693,-0.484051 -1.694979,0 -0.468049,0.484383 -0.468049,1.269313 0,1.75353 l 17.748783,18.361723 -1.740362,1.706249 -21.30557,-22.041375 1.649277,-1.800645 0.258074,0.267154 c 0.02924,0.03025 0.0596,0.05852 0.09109,0.08514 0.219722,0.185321 0.488183,0.278065 0.756484,0.278065 0.268301,0 0.536762,-0.09274 0.756485,-0.278065 0.03148,-0.02645 0.06184,-0.05489 0.09108,-0.08514 l 1.78095,-1.842636 c 6.486528,1.549361 13.340111,-0.2698 18.298009,-4.8281173 l 0.306173,0.3167496 c 1.6e-4,1.653e-4 4.939042,5.1096537 4.939042,5.1096537 0.0059,0.0061 0.30921,0.319891 0.30921,0.319891 -4.406275,5.129161 -6.164055,12.219161 -4.667066,18.930417 z m 4.424075,-21.316087 -3.196524,-3.245622 3.422892,-3.4756267 1.73638,4.728194 -1.962748,1.9930547 z" />
    </g>
    <path
       style="stroke:#4575b4;stroke-linecap:round"
       inkscape:connector-curvature="0"
       id="Line"
       d="m 56,104 -24,0" />
  </g>
</svg>
